# xmcd CD database file
#
# Track frame offsets:
#	150
#	15394
#	34197
#	50648
#	64830
#	78359
#	88085
#	105622
#	123101
#	140091
#	154425
#	170442
#
# Disc length: 2541 seconds
#
# Revision: 5
# Processed by: cddbd v1.5.2PL0 Copyright (c) Steve Scherf et al.
# Submitted via: CDex 1.50
#
DISCID=9d09eb0c
DTITLE=טיפקס - יושבים בבית קפה
DYEAR=2001
DGENRE=Rhythmic Soul
TTITLE0=יושבים בבית קפה
TTITLE1=כמו לפני 20 שנה
TTITLE2=כולם הלכו לקניון החדש
TTITLE3=מי שליבו
TTITLE4=ואת ואת ואת
TTITLE5=להתנקם
TTITLE6=אילו היית
TTITLE7=עדיף ללכת עכשיו
TTITLE8=מהשמיים
TTITLE9=אל תשכח מאיפה באת ולאן אתה הולך
TTITLE10=צ'יק צי'קו צ'אק
TTITLE11=תזרח
EXTD=YEAR: 2001
EXTT0=
EXTT1=
EXTT2=
EXTT3=
EXTT4=
EXTT5=
EXTT6=
EXTT7=
EXTT8=
EXTT9=
EXTT10=
EXTT11=
PLAYORDER=
